<?xml version="1.0" standalone="no"?>
<!DOCTYPE svg PUBLIC "-//W3C//DTD SVG 20010904//EN"
 "http://www.w3.org/TR/2001/REC-SVG-20010904/DTD/svg10.dtd">
<svg version="1.0" xmlns="http://www.w3.org/2000/svg"
 width="512.000000pt" height="512.000000pt" viewBox="0 0 512.000000 512.000000"
 preserveAspectRatio="xMidYMid meet">

<g transform="translate(0.000000,512.000000) scale(0.100000,-0.100000)"
fill="#000000" stroke="none">
<path d="M3130 2584 c0 -241 3 -363 10 -359 6 4 10 124 10 326 l0 319 24 10
c13 5 33 6 45 3 21 -5 22 -6 19 -329 -2 -252 0 -325 10 -329 9 -3 12 73 12
360 l0 365 -65 0 -65 0 0 -366z"/>
<path d="M343 2911 c-60 -20 -110 -53 -136 -87 l-18 -24 36 24 c19 13 69 38
111 56 70 29 81 31 152 24 42 -3 96 -15 120 -25 24 -11 50 -19 58 -19 15 0 97
-77 133 -125 l22 -30 -20 40 c-22 45 -92 119 -135 142 -87 46 -230 57 -323 24z"/>
<path d="M1990 2845 l0 -55 38 1 c31 2 32 3 9 6 -49 8 -23 28 44 35 68 8 416
1 430 -8 23 -14 4 -23 -53 -27 -62 -3 -62 -3 15 -5 l77 -2 0 55 0 55 -280 0
-280 0 0 -55z"/>
<path d="M2118 2793 c7 -3 16 -2 19 1 4 3 -2 6 -13 5 -11 0 -14 -3 -6 -6z"/>
<path d="M2315 2735 c-5 -22 -10 -126 -10 -231 l0 -192 25 -21 c14 -11 40 -26
58 -33 31 -12 43 -28 20 -28 -6 0 -9 -2 -7 -5 7 -6 77 14 83 24 3 5 -2 27 -11
50 -14 35 -19 40 -37 34 -33 -11 -67 -6 -85 11 -13 14 -17 50 -21 224 -4 165
-7 199 -15 167z"/>
<path d="M2200 2564 c0 -109 5 -216 10 -236 13 -45 34 -63 24 -21 -8 35 -11
86 -18 287 -2 87 -7 161 -10 164 -3 3 -6 -84 -6 -194z"/>
<path d="M1013 2743 c-54 -3 -63 -7 -63 -23 0 -16 5 -18 34 -13 19 3 48 1 65
-5 30 -11 31 -10 31 19 0 16 -1 28 -2 27 -2 -1 -31 -3 -65 -5z"/>
<path d="M1726 2735 c-68 -24 -137 -91 -150 -145 -5 -19 -2 -17 13 10 29 54
62 79 137 105 52 19 80 23 114 18 104 -14 175 -57 205 -123 10 -22 20 -38 22
-36 10 10 -50 107 -80 130 -73 56 -175 72 -261 41z"/>
<path d="M2631 2730 c-30 -11 -59 -24 -63 -28 -7 -7 15 -58 38 -91 2 -1 8 0
14 4 8 5 5 11 -7 21 -17 13 -17 14 1 7 13 -4 17 -3 12 5 -4 7 -2 12 4 12 6 0
9 3 7 8 -3 4 5 7 16 8 12 1 48 5 79 9 74 10 136 -7 178 -48 38 -38 71 -100 69
-130 -1 -12 -1 -79 -1 -149 2 -110 4 -128 18 -128 14 0 16 20 12 173 -3 161
-5 176 -30 229 -39 85 -86 111 -203 115 -71 3 -101 -1 -144 -17z"/>
<path d="M3840 2734 c-36 -16 -80 -52 -80 -66 0 -14 21 -9 53 14 25 18 46 23
93 23 62 0 144 -29 144 -51 0 -14 36 -25 56 -17 8 3 14 9 14 14 0 5 7 9 16 9
8 0 13 4 10 8 -9 14 65 35 128 35 49 1 70 -5 109 -27 26 -15 47 -30 47 -33 0
-2 -6 -1 -12 2 -7 4 -6 0 3 -7 37 -30 47 -81 48 -244 1 -87 4 -160 6 -163 12
-12 4 318 -9 366 -27 102 -91 152 -192 153 -65 0 -110 -19 -153 -64 l-34 -36
-23 34 c-41 60 -147 83 -224 50z"/>
<path d="M4736 2734 c-56 -20 -100 -57 -130 -108 -32 -55 -49 -137 -35 -168 9
-22 9 -22 4 2 -2 14 4 52 16 85 17 50 29 67 74 103 44 35 65 45 114 52 108 15
168 -1 230 -62 50 -49 60 -69 70 -134 l9 -59 1 52 c0 29 -6 72 -15 95 -23 59
-88 124 -143 143 -55 19 -143 18 -195 -1z"/>
<path d="M1324 2724 c3 -9 6 -16 6 -17 0 -1 23 0 50 1 30 3 57 -1 65 -8 13
-10 15 -8 15 14 0 26 -1 26 -71 26 -61 0 -70 -2 -65 -16z"/>
<path d="M3630 2711 c0 -28 1 -28 41 -21 34 6 45 4 60 -11 19 -19 19 -18 19
21 l0 40 -60 0 c-59 0 -60 0 -60 -29z"/>
<path d="M2872 2560 c0 -14 2 -19 5 -12 2 6 2 18 0 25 -3 6 -5 1 -5 -13z"/>
<path d="M1703 2518 c2 -9 34 -13 112 -13 78 0 110 4 113 13 3 9 -24 12 -113
12 -89 0 -116 -3 -112 -12z"/>
<path d="M2642 2515 c-24 -7 -53 -22 -64 -32 -68 -62 -63 -174 11 -227 l26
-19 -26 29 c-15 17 -29 47 -33 71 -5 37 -3 44 24 66 17 14 30 31 30 37 0 6 5
8 10 5 6 -3 10 0 10 7 0 9 3 9 10 -2 6 -10 10 -11 10 -2 0 6 5 12 11 12 5 0 7
-5 3 -12 -5 -8 -2 -9 10 -5 10 4 30 7 44 7 20 0 23 3 13 9 -9 6 8 7 47 4 49
-5 62 -3 62 8 0 12 2 12 9 1 6 -10 11 -5 20 19 6 17 11 34 11 35 0 10 -201 1
-238 -11z"/>
<path d="M4712 2510 c4 -20 70 -32 156 -28 50 2 76 8 82 18 5 8 7 17 4 20 -3
3 -59 5 -125 5 -99 0 -119 -2 -117 -15z"/>
<path d="M3633 2415 c0 -38 2 -53 4 -32 2 20 2 52 0 70 -2 17 -4 1 -4 -38z"/>
<path d="M4110 2343 c-3 -62 -1 -109 3 -104 4 4 6 55 5 112 l-3 104 -5 -112z"/>
<path d="M2875 2408 c-10 -51 -53 -89 -108 -95 -53 -6 -81 7 -108 50 l-20 32
2 -52 c2 -29 7 -53 11 -53 5 0 6 -4 3 -10 -3 -5 1 -10 9 -10 9 0 16 -4 16 -10
0 -5 16 -12 36 -16 27 -5 32 -9 22 -16 -9 -7 -2 -8 21 -4 19 3 54 22 78 42
l43 35 0 -35 c0 -20 5 -36 11 -36 11 0 3 58 -11 73 -4 5 -1 27 7 49 9 28 11
49 5 67 -9 26 -9 26 -17 -11z"/>
<path d="M3754 2340 c0 -58 1 -81 3 -52 2 28 2 76 0 105 -2 28 -3 5 -3 -53z"/>
<path d="M290 2412 c0 -11 46 -53 85 -77 62 -40 220 -17 253 36 12 19 12 19
-28 -1 -87 -44 -202 -35 -272 21 -21 17 -38 26 -38 21z"/>
<path d="M4700 2385 c0 -23 37 -68 70 -85 49 -25 101 -25 166 -1 51 20 51 20
74 -1 15 -14 25 -17 32 -10 11 11 9 15 -36 69 l-19 22 -31 -24 c-61 -47 -168
-42 -216 10 -22 23 -40 32 -40 20z"/>
<path d="M1700 2373 c1 -15 45 -58 73 -70 41 -19 92 -16 137 7 51 26 85 25
104 -2 9 -12 19 -19 23 -15 4 4 -9 24 -30 44 -34 34 -37 36 -54 21 -52 -46
-169 -47 -223 -2 -16 14 -30 22 -30 17z"/>
<path d="M3421 2358 c-31 -11 -50 -37 -51 -65 0 -31 18 -29 26 1 3 15 11 23
19 20 7 -3 16 0 20 6 5 8 11 8 21 -1 8 -6 17 -9 21 -5 4 3 15 -6 25 -21 l18
-28 0 26 c0 25 -30 61 -60 71 -8 3 -26 1 -39 -4z"/>
<path d="M1110 2351 c0 -4 10 -17 23 -29 28 -27 78 -29 118 -5 36 21 38 36 3
23 -36 -14 -85 -12 -116 4 -16 8 -28 11 -28 7z"/>
<path d="M2248 2263 c7 -3 16 -2 19 1 4 3 -2 6 -13 5 -11 0 -14 -3 -6 -6z"/>
<path d="M690 2249 c0 -6 16 -27 35 -46 33 -33 37 -35 84 -28 43 6 51 4 70
-16 11 -12 24 -20 27 -16 4 3 -9 22 -27 42 -29 30 -38 34 -66 29 -42 -8 -73 0
-101 26 -12 11 -22 16 -22 9z"/>
<path d="M2630 2230 c8 -5 26 -10 39 -10 32 0 24 6 -19 14 -25 4 -31 3 -20 -4z"/>
<path d="M2348 2223 c6 -2 18 -2 25 0 6 3 1 5 -13 5 -14 0 -19 -2 -12 -5z"/>
<path d="M3226 1954 c-32 -8 -126 -48 -210 -89 -155 -77 -214 -95 -496 -156
-89 -19 -110 -28 -137 -55 -33 -32 -43 -67 -23 -79 6 -3 10 3 10 14 0 12 3 20
8 19 4 -1 18 5 32 14 26 17 168 56 234 64 21 3 72 16 114 30 41 13 83 24 93
24 10 0 20 4 23 9 3 5 18 12 33 16 15 3 30 10 33 13 11 15 218 111 275 128 44
13 94 18 190 18 119 1 140 -2 247 -34 64 -18 115 -37 112 -42 -3 -5 -2 -8 3
-6 4 1 40 -8 78 -21 39 -12 98 -25 133 -28 34 -3 62 -10 62 -15 0 -5 4 -7 9
-4 12 8 158 -19 174 -32 11 -9 16 -6 25 14 7 14 12 29 12 33 0 5 -28 11 -62
15 -141 15 -300 50 -423 92 -72 24 -162 51 -200 59 -88 18 -271 18 -349 -1z"/>
<path d="M1571 1754 c-24 -30 -24 -33 -11 -54 8 -13 10 -13 10 1 0 21 20 29
69 29 46 0 84 -18 132 -62 19 -18 66 -58 104 -88 38 -30 84 -70 104 -89 20
-19 37 -33 39 -31 2 1 31 -17 64 -41 33 -24 63 -44 67 -44 3 -1 20 -8 36 -17
17 -8 44 -18 60 -22 17 -4 48 -15 70 -25 22 -10 104 -31 182 -46 122 -23 150
-25 194 -16 28 6 58 15 68 21 10 5 31 11 46 14 16 3 33 12 37 21 5 8 13 15 19
15 21 0 112 69 125 96 8 15 13 28 11 30 -2 2 -27 -13 -57 -33 -90 -60 -202
-104 -283 -110 -62 -4 -96 1 -242 37 -93 23 -199 56 -234 72 -72 32 -196 122
-341 248 -124 108 -145 120 -202 120 -38 0 -50 -5 -67 -26z"/>
<path d="M1810 1731 c0 -14 53 -50 92 -63 18 -6 41 -21 50 -32 10 -12 22 -26
27 -32 5 -7 7 -15 3 -18 -3 -4 4 -9 16 -13 12 -3 22 -10 22 -17 0 -6 12 -20
27 -30 l25 -19 -28 49 c-47 83 -93 142 -128 163 -34 21 -106 29 -106 12z"/>
<path d="M532 1620 c0 -14 2 -19 5 -12 2 6 2 18 0 25 -3 6 -5 1 -5 -13z"/>
<path d="M2070 1574 c0 -12 53 -74 64 -74 6 0 4 5 -4 10 -10 6 -11 10 -3 10 7
0 23 -18 35 -39 15 -25 38 -47 66 -61 25 -11 46 -19 48 -17 2 2 -29 38 -68 81
-47 50 -84 80 -105 86 -18 5 -33 6 -33 4z"/>
<path d="M1030 1550 c8 -5 20 -10 25 -10 6 0 3 5 -5 10 -8 5 -19 10 -25 10 -5
0 -3 -5 5 -10z"/>
<path d="M1077 1539 c7 -7 15 -10 18 -7 3 3 -2 9 -12 12 -14 6 -15 5 -6 -5z"/>
<path d="M511 1524 c0 -11 3 -14 6 -6 3 7 2 16 -1 19 -3 4 -6 -2 -5 -13z"/>
<path d="M496 1483 c-6 -14 -5 -15 5 -6 7 7 10 15 7 18 -3 3 -9 -2 -12 -12z"/>
<path d="M1288 1493 c6 -2 18 -2 25 0 6 3 1 5 -13 5 -14 0 -19 -2 -12 -5z"/>
<path d="M864 1474 c-18 -14 -18 -15 4 -4 12 6 22 13 22 15 0 8 -5 6 -26 -11z"/>
<path d="M1403 1483 c9 -2 23 -2 30 0 6 3 -1 5 -18 5 -16 0 -22 -2 -12 -5z"/>
<path d="M670 1370 c-9 -6 -10 -10 -3 -10 6 0 15 5 18 10 8 12 4 12 -15 0z"/>
<path d="M550 1334 c-30 -8 -36 -12 -20 -12 14 0 41 6 60 13 44 17 20 17 -40
-1z"/>
<path d="M387 1320 c-16 -19 -16 -20 13 -20 16 0 31 4 34 9 4 5 -3 7 -14 4
-22 -6 -28 12 -7 20 6 3 7 6 2 6 -6 1 -18 -8 -28 -19z"/>
</g>
</svg>
